<?xml version="1.0" encoding="UTF-8" standalone="no"?>
<svg
   id="Layer_1"
   data-name="Layer 1"
   version="1.1"
   viewBox="0 0 899.5 936.8"
   sodipodi:docname="Niwl_Games_Logo_2-01.svg"
   inkscape:version="1.4 (e7c3feb100, 2024-10-09)"
   xmlns:inkscape="http://www.inkscape.org/namespaces/inkscape"
   xmlns:sodipodi="http://sodipodi.sourceforge.net/DTD/sodipodi-0.dtd"
   xmlns="http://www.w3.org/2000/svg"
   xmlns:svg="http://www.w3.org/2000/svg">
  <sodipodi:namedview
     id="namedview25"
     pagecolor="#505050"
     bordercolor="#eeeeee"
     borderopacity="1"
     inkscape:showpageshadow="0"
     inkscape:pageopacity="0"
     inkscape:pagecheckerboard="0"
     inkscape:deskcolor="#505050"
     inkscape:zoom="0.57536295"
     inkscape:cx="449.28163"
     inkscape:cy="468.39999"
     inkscape:window-width="1368"
     inkscape:window-height="783"
     inkscape:window-x="0"
     inkscape:window-y="0"
     inkscape:window-maximized="1"
     inkscape:current-layer="Layer_1" />
  <defs
     id="defs1">
    <style
       id="style1">
      .cls-1 {
        fill: #000;
        stroke-width: 0px;
      }
    </style>
    <inkscape:path-effect
       effect="fill_between_many"
       method="originald"
       linkedpaths="#g4,0,1|"
       id="path-effect25" />
  </defs>
  <path
     inkscape:original-d="M 0,0"
     inkscape:path-effect="#path-effect25"
     d="M 0,0"
     id="path26" />
  <g
     id="g4"
     style="fill:#f9f9f9">
    <path
       class="cls-1"
       d="M135.9,491.9h.5c2.2,0,4,2.4,4,4.9v.3l-.3,1.6c-1.1,1.3-2.2,1.6-3.2,1.6-2.4,0-4-2.4-4-4.9s.8-3,3-3.5ZM398.5,346.2c.5.3.8.5,1.1.5.5,0,.5-1.3.8-2.4.3-1.6.3-3.2.3-4.6,0-5.9-1.9-8.1-3.8-8.1s-3.5,2.2-3.5,5.1,1.3,5.9,5.1,9.4ZM140.7,510.5c-.3-.5-.3-1.1-.3-1.3,0-1.1.5-2.2,1.6-2.7h.3c1.6,0,2.2,1.1,2.2,2.2,0,1.6-1.1,3.2-2.2,3.2s-1.1-.3-1.6-1.3ZM118.6,531.1c-3-.3-5.7-4.3-5.7-7.6s.5-2.7,1.6-3.5c4.3.8,7.8,5.4,7.8,8.6s-.8,2.4-3,2.4h-.8ZM202,437.9c.5-1.1,1.1-1.3,1.3-1.3,0,0,.3.3.3.8,0,1.1-.3,3-.5,3.5-.5,1.9-1.3,2.7-1.9,2.7s-.8-.5-.8-1.3.5-2.4,1.6-4.3ZM208.2,551.3c-.5.5-1.1.8-1.6.8-.8,0-1.1-.5-1.3-1.9,0-2.7,1.6-4,3-4s1.9.8,1.9,1.9-.5,1.9-1.9,3.2ZM214.2,524c-.5,0-.8.3-1.3.3-.8,0-1.3-.3-1.3-1.1v-.3c.5-1.1,1.9-1.6,3.2-1.6s2.2.3,2.2.8-.8,1.1-2.7,1.9ZM213.3,511.4c.3-.8,1.3-1.1,2.4-1.1h.8c1.1.5,1.6,1.1,1.6,1.3,0,.8-1.6,1.6-3,1.6s-1.9-.5-1.9-1.3v-.5ZM218.7,528.1c0,.5-.8.8-1.6.8s-1.9-.3-2.4-.3c-.5-.3-.8-.5-.8-.8,0-.8,1.6-1.6,3-1.6s1.9.3,1.9,1.6v.3ZM217.9,601.5c-.5-.5-.5-.8-.5-1.3,0-.8.5-1.6,1.1-2.2h.3c1.1,0,1.3,1.3,1.3,2.4s-.3,2.2-.8,2.2-.8-.3-1.3-1.1ZM290.3,595.3c-.5,1.1-.8,1.3-1.3,1.3s-1.1-.8-1.6-1.6c-.3-.8-.3-1.3-.3-2.2,0-1.6.8-2.2,1.6-2.2s2.2.8,2.2,2.4-.3,1.3-.5,2.2ZM293.2,513.5h1.3c1.9,0,5.1.5,5.1,2.2v.3c-.8,1.3-2.4,1.6-4,1.6-2.7,0-5.7-1.1-5.7-2.4s.8-1.1,3.2-1.6ZM295.9,554.5h-.3c-1.3,0-2.2-1.1-2.2-2.4.3-1.3.8-1.9,1.6-1.9s2.4,1.6,2.4,2.7-.5,1.3-1.6,1.6ZM330.5,452c0,1.3-.5,2.2-.8,2.2-.5,0-1.3-.8-2.2-2.2-.3-.3-.3-.8-.3-1.1,0-.5.3-.8,1.1-.8s2.2.8,2.2,1.9ZM335.3,474.9c-.8,1.3-1.6,2.2-2.2,2.2s-.8-.8-.8-2.2.8-1.6,1.9-1.6,1.3.3,1.3.8,0,.5-.3.8ZM348.6,418.5c-.8,1.9-1.6,2.7-1.9,2.7-.5,0-.8-.5-.8-1.9s.8-2.2,1.9-2.7c.3-.3.5-.3.8-.3s.3.3.3.5c0,.5,0,1.1-.3,1.6ZM324.8,518.1c1.6-.8,3.5-1.6,4-1.6,1.6,0,6.7-8.6,14-24,2.2-4.3,3.2-8.1,3.2-10.8s-1.1-4.6-3.5-4.6-1.9-.5-1.9-1.9,0-1.1.3-1.9c.3-.8.3-1.6.3-2.2,0-1.1-.3-1.6-1.1-1.6s-2.2-.8-2.2-1.9.3-.5.8-.5c1.1,0,3,.5,5.1,1.9,1.9.8,3.8,1.3,5.4,1.3,3.5,0,5.9-2.4,5.9-6.5s.8-4,1.3-4.6c2.4-2.4,6.5-15.7,6.5-21.1s1.1-5.4,2.7-5.4c6.5-1.9,27-64.2,28.9-73.7.3-1.6.5-3,.5-4,0-3.2-1.3-4.6-3.2-4.6-5.9,0-16.7,10.8-16.7,20.5v2.7c0,2.7-1.3,2.7-3,2.7h-.5c-1.6,0-3.8.3-4.6,3.2-2.2,6.7-12.1,14.3-14.8,21.6-.8,2.2-4.3,7.3-7.8,11.6-10.3,11.6-10.8,12.4-19.4,24.6-4.3,6.5-8.1,13-8.1,14.8s-1.3,3.8-3,4.3c-1.6.8-2.7,3-2.7,4.9s-1.3,4-3,4.9c-1.6.5-4.9,5.1-7.3,10.3-2.7,5.1-7,13.2-9.7,17.8-2.7,4.9-5.1,10.3-5.1,11.9s-1.6,4.3-3.8,5.4c-6.7,4-1.9,12.7-6.2,13.8-8.4,4.6-31.6,55.1-38.1,59.6-.5.3-.8.5-1.1.5-1.1,0-1.1-1.3-1.3-3-1.3-6.7-1.6-20.2-1.6-32.4v-21.1c-.3-3-.3-5.7-.5-8.6-.8-7-1.3-10.3-1.6-17.3-.3-10,.3-20-2.4-29.7v-1.1c0-4,3.8-2.4,4-12.1,0-14.6-1.1-28.6-1.1-42.9v-11.6c0-12.1-1.6-15.9-16.5-15.9s-8.1-.3-10.8-.3c-4.9,0-8.6.5-16.7,4-.8.3-1.6.5-2.7.5-3.2,0-6.2-1.9-9.7-1.9s-8.9,3-14,15.9c-1.6,4,.8,7.8-3,8.9-3.2,1.1-8.4,7.6-9.2,10.8-1.3,5.7-10.8,21.6-10.8,27.3v1.3c0,.8-1.1,1.6-1.9,2.2-2.7.8-14.3,22.7-14.3,27s-.5,3-1.3,3.2c-2.7,1.1-8.4,12.4-8.4,16.5-.5,7.3-5.4,3-5.4,9.7s0,1.9.3,3.2c.3,1.6.3,3,.3,3.8,0,2.4-.5,3-1.6,3s-1.3-.3-1.9-.3c-1.1,0-2.2.3-3.2,1.3-.5.5-.8.8-.8,1.3,0,1.3,4,2.2,4,4s-1.3,2.4-5.4,4.6c-.8.5-1.1.5-1.9.8-1.6.8-4,3.8-5.1,7.3-.8,2.2-1.1,3.5-1.1,4.6s.5,1.3,1.9,1.3,2.7,1.1,2.7,2.2-.8,1.3-2.2,1.3-1.1-.3-1.6-.3-.8-.3-1.1-.3c-2.2,0-4,2.2-6.5,7.8-2.4,5.7-8.9,24.8-8.9,32.1v1.3c3.2,8.6,14.6,22.4,23.2,25.4,4,1.3,5.9,3.8,8.1,3.8s4-1.9,7.6-8.4c3.2-5.9,8.1-15.4,9.7-21.6,3.2-8.1,8.1-7.8,8.1-16.2s-.3-4-.8-6.7v-1.1c0-1.6.5-3,1.6-3s1.1.3,1.6.8c.5.5,1.1.8,1.6.8,1.9,0,3.5-3.2,4.9-5.1,1.1-1.9,1.6-3.2,1.6-4.3,0-5.4-13.5-1.9-13.5-8.1s.5-2.7,1.9-4.9c2.2-3.5,3.5-3.8,4.3-3.8h.3c.8,0,1.3,0,2.2-2.4.8-1.6,1.3-2.2,1.6-2.2,1.3,0,1.6,5.9,1.9,6.7,1.1,3,3.2,5.4,5.1,7.8,4.6-11.9,7.8-19.7,13.8-31,3-5.9,2.7-5.9,6.7-11.6,10.3-15.1,14.3-34,27.5-47.8.5-.5,1.1-.8,1.6-.8,1.6,0,2.2,3.8,2.2,8.9,0,8.6-1.3,20.5-1.6,21.1,0,2.4-.5,11.6-.5,21.9s.8,29.1,4.9,29.1c2.2.3,3.2,1.3,3.2,2.7s-.8,2.2-1.9,3.2-1.9,2.2-1.9,3.5.3,1.9.8,3.8c.8,2.7,2.4,9.7,5.9,9.7s.8-.3,1.1-.3c1.3-.8,2.2-3.2,3.5-3.2s1.9.8,3.5,2.7c.5.8.8,1.3.8,1.9,0,2.7-6.7,1.6-7.8,3-1.1,1.3-1.6,3.8-1.6,6.2,0,6.2,2.7,14.3,5.1,17.8,4,10-.3,24.3,6.7,30,3.2,3.8.5,5.1,8.4,10.5,9.4,5.9,17,9.2,28.3,9.7h1.1c3.2,0,4-1.1,4-2.4s-.3-1.6-.3-2.2c0-.8.3-1.3,1.1-1.3h.3c2.7,0,4.9,4,6.7,4s1.6-1.1,2.7-3.8c1.9-6.2,8.4-11.3,8.4-17.5s-.3-1.9-.5-2.7c-1.1-1.9-1.3-2.7-1.3-3.2s0-.3.3-.3c.8,0,4,3,4,3,.3.3.5.3.8.3,5.1,0,8.6-17.8,10-21.6,4.3-12.7,8.4-18.1,14.8-29.1,2.2-3.8,18.1-37.2,18.1-43.7s-.3-.5-.3-.8l-.5-.3c-1.1-.8-1.6-1.1-1.6-1.6s.5-.8,1.6-1.6Z"
       id="path1"
       style="fill:#f9f9f9" />
    <path
       class="cls-1"
       d="M402.5,442.5c0,.5-.8.8-1.9.8s-1.9-.8-1.9-1.6.3-1.3,1.1-1.3.5,0,.8.3c1.1.8,1.9,1.3,1.9,1.9ZM407.1,500.8c6.2-11.9,15.4-29.4,20.8-38.9,13.8-25.4,28.3-55.6,28.3-58.6,0-4.6-7.6-17.5-13-21.9-11.9-9.4-14-10.5-19.7-10.5s-6.7,1.1-13.2,11.6c-11.1,17.5-24.6,43.2-24.6,46.4s-.8,3.2-1.9,3.5c-1.3.5-14.3,26.7-39.7,80.2-3.8,7.8-7.6,17.8-8.6,22.4-.8,4-3,14-4.6,21.6-2.7,12.1-4.3,30.5-4.3,42.9s.5,11.1,1.3,12.7c1.3,2.7,2.7,3.8,4.3,3.8s3.2-.8,5.4-2.7c2.2-2.2,3.2-4,3.2-5.7s-1.3-3.2-3.8-4.6c-1.9-.8-2.7-1.6-2.7-2.4s.3-1.1,1.1-1.6c.8-.8,1.3-1.3,1.9-1.3.8,0,1.6.8,2.7,2.2,1.1,2.2,3.2,3.2,4.3,3.2,3,0,31-38.1,31-41.8v-.3c-.3-.3-.3-.8-.3-1.1,0-.8.5-1.3,1.1-1.3,3,0,15.9-27.3,15.9-32.9v-.5c-.3-.8-.5-1.6-.5-2.2,0-.8.5-1.1,1.1-1.1h.5c1.9,0,7-8.1,13.8-21.1Z"
       id="path2"
       style="fill:#f9f9f9" />
    <path
       class="cls-1"
       d="M426.8,557.8c.5-1.1,1.6-1.9,1.9-1.9.5,0,.8.8,1.1,1.9,0,1.1-.8,1.9-1.9,1.9s-1.3-.5-1.3-1.1,0-.5.3-.8ZM487.8,518.9c0,.8-.5,1.6-1.6,1.6s-2.4-.8-3-1.6c-.3-.3-.3-.5-.3-.8,0-.8.8-1.3,1.9-1.3,1.6,0,3,1.1,3,2.2ZM501.9,530c0,1.1-.3,1.6-.8,1.6s-1.3-.5-2.2-1.6c-.3-.3-.3-.8-.3-1.1,0-.5.3-.8,1.1-.8s1.9.8,2.2,1.9ZM516.7,498.1c.3.3.3.8.3,1.1,0,.5-.8,1.1-1.9,1.1s-2.7-.8-3-2.2c0-.8.5-1.6,1.6-1.6s2.4.8,3,1.6ZM521.8,540.5h-2.2c-1.1,0-1.6,0-1.6-.3s.3-.5,1.1-1.1c1.6-1.1,3.5-1.6,5.1-1.6s2.4.5,2.4,1.3-2.2,1.3-4.9,1.6ZM556.6,509.5c-.5,1.1-1.3,1.9-1.6,1.9-.5,0-1.1-.8-1.1-1.9s.8-1.9,1.9-1.9,1.1.3,1.1.8,0,.8-.3,1.1ZM564.7,490.6c.5.5.5,1.3.5,2.2s0,1.1-.3,1.3c0,.3-.3.3-.3.3-.5,0-.8-1.1-.8-2.7v-1.1c0-.5,0-.8.3-.8,0,0,.3.3.5.8ZM570.4,499.2c.3.8.5,1.3.5,1.6,0,.8-.3,1.1-.8,1.1-1.6,0-3.2-1.6-3.2-3s.3-1.1.8-1.3c.3,0,.3-.3.5-.3.8,0,1.6.8,2.2,1.9ZM605.5,624.7c.5,0,.8.8.8,1.9v.3c0,.8-.8,1.3-1.6,1.3s-1.3-.3-1.3-.8,0-.5.3-.8c.5-1.1,1.3-1.9,1.9-1.9ZM474.9,596.6c6.5-7,14.8-15.4,18.6-18.6,10.8-9.7,20-20.8,21.6-25.4.5-2.2,2.4-4,4-4s6.2-3.5,10.5-7.8l7.8-7.6.5,5.4c2.2,21.1,8.4,44,17.8,65.6,4.3,9.4,24.6,29.4,31.3,30,4.3.5,7.6,1.1,10,1.1s4.9-.5,6.5-1.3c10.8-5.9,56.9-98.2,66.9-133.3,2.4-8.9,6.5-21.9,8.6-29.1,2.2-7,5.4-19.2,7-27,1.6-7.6,4-19.2,5.4-25.4,1.6-7,2.4-10.8,2.4-12.1s-.3-1.1-.5-1.1-.8.3-1.3.5c-.3.3-.5.3-1.1.3s-.5-.3-.8-.8c0-1.3-.8-3.5-1.6-5.1-.5-1.1-.5-1.6-.5-2.2s0-.3.3-.3.5,0,1.1.3,1.1.5,1.3.5c.5,0,.8-.5.8-1.1,0-.8-1.1-2.2-2.2-3-1.1-.5-1.3-1.1-1.3-1.9s.8-1.6,2.4-1.6,1.1,0,1.6.3c.3.3.8.3,1.1.3.8,0,1.3-.3,1.3-.8v-.3c0-1.1-1.6-2.4-3.2-3-.3,0-.5-.3-1.1-.3-4,0-11.6,7.8-11.6,12.1v.8l-79.9,151.9c-.5,2.7-1.9,5.1-3,5.7-1.3.5-5.4,7-9.2,14-3.5,7.3-6.7,12.7-7.6,12.7-.3-.3-.5-6.5-.5-14.6,0-12.4,3-51.5,3.5-59.1.3-4,.5-7.8.5-11.3,0-11.3-1.6-18.6-4.9-20.5-1.6-1.1-3-3-3-4.9v-.8c0-1.6-1.6-4.3-3.8-6.2-1.6-1.3-3.2-2.4-3.8-2.4v.3c0,.3-.3.5-.8.5s-1.9-.5-3.2-1.3c-1.9-.8-3.5-2.7-3.5-3.8v-.8c0-3.2-9.7-9.2-14.8-9.2s-1.1,0-1.6.3c-2.4.8-14.6,12.4-27.3,25.6-12.7,13.8-26.7,28.3-31,32.7-4.6,4-8.1,9.4-8.4,11.9,0,2.4-1.6,4-4,4.6h-1.3c-1.6,0-2.4-.5-2.4-1.9s.3-.8.3-1.3c.5-1.9,2.2-5.1,4-6.7,1.6-1.6,3-3.8,3-4.9v-.3c0-.8,1.3-3.8,3-6.5,10.3-17,13.8-23.8,13.8-28.1s-.3-2.2-.8-3c-1.1-1.9-1.3-3-1.3-3.5s0-.5.3-.5.5.3.8.3.5.3.8.3c1.3,0,3.5-1.1,5.4-2.4,4.6-4,17.3-30.2,17.3-35.4v-.5c0-.3-.3-.3-.3-.5,0-1.1.8-2.4,2.2-3.5,4.6-3.8,8.4-11.6,8.4-17.3v-.5c-1.3-13.8-21.1-33.5-32.1-33.5s-1.3,0-2.2.3c-3.5,1.3-15.4,20.5-15.4,24.3s0,.5.3.5.3.3.3.3c0,1.1-1.6,3.8-4.3,6.7-3,3.5-8.6,12.7-12.7,20.5-4.3,8.1-5.9,11.9-5.9,14.3s.3,1.9.8,2.4c.8.8,1.1,1.3,1.1,1.9,0,.8-1.1,1.6-3.5,2.4-4,1.9-10,10.8-21.1,32.4-2.4,4.9-4.3,10-4.3,11.6s-.8,3.2-2.2,4c-2.4,1.6-9.2,14-9.2,17v.3c.3.8.8,1.3,1.9,1.3h1.1c.8,0,1.9.8,2.4,2.2l.5,1.1c0,.3-.3.3-.5.3s-1.3-.3-2.7-1.1c-1.3-.8-2.4-1.3-3.2-1.3-1.6,0-2.4,1.9-5.1,7.3-14.3,27-21.6,49.9-21.6,64s.5,6.7,1.6,9.2c1.1,2.2,2.2,4.6,2.7,5.9,1.1,4.3,11.9,15.7,21.1,22.1,5.4,4,12.1,6.2,16.7,6.2s4.3-.5,5.1-1.9c.5-1.1,2.4-2.2,4-2.2,3.2,0,15.9-11.1,35.9-31.6Z"
       id="path3"
       style="fill:#f9f9f9" />
    <path
       class="cls-1"
       d="M680,517.3c0-1.3.5-2.2,1.1-2.2s.5,0,.8.3c1.1.5,1.9,1.9,1.9,2.7s-.8,2.2-1.9,2.2-1.9-1.6-1.9-3ZM658.9,562.6c1.3,0,2.7.8,3.5,2.2.5.8.5,1.1.5,1.3v.3c-.5,0-1.6-.5-3.5-1.6-.8-.8-1.3-1.3-1.3-1.6s.3-.5.8-.5ZM705.6,470.9c-.3.3-.5.3-.8.3-1.1,0-2.4-1.9-2.4-3.8s.3-.8.5-.8.8.3,1.6,1.1c.8.8,1.3,1.9,1.3,2.7s0,.3-.3.5ZM722.9,449.6c0,1.1-1.1,1.6-1.9,1.6s-1.9-.5-1.9-1.6.8-1.9,1.9-1.9,1.9.5,1.9,1.9ZM746.1,425.3c-.8,1.1-1.6,1.9-2.2,1.9s-.8-.8-.8-1.9,1.1-1.9,2.2-1.9,1.1.3,1.1.8,0,.8-.3,1.1ZM762.6,442.3c-.5.8-2.7,1.6-4.9,1.6s-3-.3-3-.8,0-.3.3-.5c1.1-1.1,3.5-1.6,5.4-1.6s2.2.3,2.2,1.1v.3ZM777.2,611.2c0,.3.5.5,1.1.5,5.1,0,29.1-13.5,38.6-21.9,4-3.8,7-7.6,7-8.9v-.3c-.8-.8-3.2-1.3-5.7-1.3-3.8,0-8.1,1.1-8.6,2.4-.3.8-.8,1.3-1.1,1.3-.5,0-.8-.5-1.6-1.6-.5-.5-1.6-1.1-4.3-1.1,0,0-98.8,21.3-103.1,22.1l-7.8.8,5.4-11.1c3-5.9,5.9-13,13.8-26.4.5-2.7,5.4-13,10.5-22.9,23.2-45.9,37.5-73.1,44.3-84.2,3.8-6.2,6.5-11.9,6.5-13.8v-.5c0-1.1,1.3-3,3-4,1.9-1.3,3.2-3,3.2-4.3v-.5c0-1.3,1.9-5.1,4.3-8.4,5.9-8.4,11.3-19.4,11.3-24v-1.3c0-1.3,1.1-2.7,2.7-3.2,1.3-.8,2.2-1.1,2.2-1.6s-.5-.8-1.6-1.6c-1.1-.8-1.6-1.6-1.6-1.9,0-.5.3-.8,1.1-.8,1.6-.8,2.2-3,2.2-5.1s-.8-5.4-2.7-6.7c-1.1-.8-1.6-1.3-2.2-1.3s-.5.3-.5,1.1-.8,2.2-1.9,2.2-1.9-1.3-1.9-2.4c0-1.6.8-3,2.2-3.5.3,0,.5-.3.5-.8,0-3-9.2-12.1-14.6-14.6-5.7-2.4-9.2-3.8-11.9-3.8-4.9,0-7.6,4.3-15.1,15.9-11.6,17.3-15.4,23.5-15.4,26.7s.3,1.9,1.1,2.7c.5.8,1.1,1.3,1.1,1.6s-.3.3-.8.3-1.1,0-1.9-.3h-.8c-2.2,0-4.6,2.7-8.9,10.5-3,5.7-4.9,11.3-4.9,13.8v.5c.3.8.3,1.3.3,1.6,0,.8-.3,1.1-.8,1.1s-.8-.3-1.3-.5c-.5-.3-1.1-.3-1.3-.3-1.1,0-1.6,1.1-1.6,3.2s-.8,4-1.6,4c-2.4,0-35.6,66.9-35.6,72.1s-.8,3.8-1.6,3.8c-3,0-10,13.5-10,18.9v1.1c0,2.4-.8,4.3-1.6,4.3-2.2,0-12.7,22.7-12.7,27.3s.5,1.9,1.3,1.9l.5-.3c.3-.3.5-.3.8-.3.5,0,1.1.8,1.1,1.9,0,1.6-.8,3-1.6,3s-3,2.7-4.6,5.7c-1.6,2.7-2.4,6.7-2.4,11.3,0,6.7,1.6,14.6,5.1,21.3,4.9,10,20.2,25.1,25.6,25.1s3.8.8,3.8,2.7,2.7,3.2,5.9,4c3,.8,5.9,1.1,9.4,1.1,14.8,0,34.8-7,62.9-21.3,9.7-4.9,13.5-7.8,13.5-9.7v-.5c-.3-.5-.3-.8-.3-1.3s.3-1.1,1.1-1.1,2.2.8,2.7,1.9Z"
       id="path4"
       style="fill:#f9f9f9" />
  </g>
  <g
     id="g20"
     style="fill:#ffb380">
    <path
       class="cls-1"
       d="M295.6,673.8h6.3v-11.5h8.6v11.5h6.3v-28h-6.3v11.3h-8.6v-11.3h-8.1l1.8,3.3v24.8Z"
       id="path5"
       style="fill:#ffb380" />
    <path
       class="cls-1"
       d="M321.6,667c0,2.9,1.8,5.5,3.9,7.4l8.4-2.6v2h5.7v-13.6c0-5-3.7-7.7-10.1-7.7s-5.1.6-6.6,1v6.7l3.4-2.7c.9-.2,1.8-.3,2.7-.3,3,0,4.5.8,4.7,3h-3.2c-6.6,0-8.9,2.7-8.9,6.8ZM327.2,666.9c0-1.3.8-2.4,3.2-2.4h3.3v2.5l-5.9,1.6c-.4-.4-.7-1.1-.7-1.7Z"
       id="path6"
       style="fill:#ffb380" />
    <path
       class="cls-1"
       d="M350.9,652.9h-7.4l1.8,3.3v17.6h6v-12.7l4-3c1.8.3,3,1.5,3,4.2v11.6h6v-12c0-5.7-3.8-9.1-10-9.1l-3.3,2.7v-2.5Z"
       id="path7"
       style="fill:#ffb380" />
    <path
       class="cls-1"
       d="M379.5,652.9c-6.7,0-11,4.6-11,10.5s4.1,10.8,10.9,10.8,6.1-1.1,7.7-2.1v-27.8h-7.8l1.8,3.3v5.3h-1.6ZM381.1,669.2c-.6.2-1.1.2-1.8.2-2.7,0-4.8-2.2-4.8-5.9s1.9-5.5,5-5.5h1.6v11.3Z"
       id="path8"
       style="fill:#ffb380" />
    <path
       class="cls-1"
       d="M407.9,653.3c-1.7-.6-3.3-.8-4.8-.8-6.3,0-11.4,4.9-11.4,10.9s4.7,10.9,11.6,10.9,3.4-.4,5-.9v-5c-2,.8-2.8.9-4.6.9-3.9,0-5.9-2.3-5.9-5.9s2.2-6.2,5.6-6.2h.4l4.2,3.2v-7.1Z"
       id="path9"
       style="fill:#ffb380" />
    <path
       class="cls-1"
       d="M413,673.8h6v-12.3l3.2-3c.5.2,1.7.7,2.9,1.9l2.8-4.5c-1.5-1.6-3.5-2.7-6.6-3l-2.8,3v-3h-7.4l1.8,3.3v17.6Z"
       id="path10"
       style="fill:#ffb380" />
    <path
       class="cls-1"
       d="M429.7,667c0,2.9,1.8,5.5,3.9,7.4l8.4-2.6v2h5.7v-13.6c0-5-3.7-7.7-10.1-7.7s-5.1.6-6.6,1v6.7l3.4-2.7c.9-.2,1.8-.3,2.7-.3,3,0,4.5.8,4.7,3h-3.2c-6.6,0-8.9,2.7-8.9,6.8ZM435.3,666.9c0-1.3.8-2.4,3.2-2.4h3.3v2.5l-5.9,1.6c-.4-.4-.7-1.1-.7-1.7Z"
       id="path11"
       style="fill:#ffb380" />
    <path
       class="cls-1"
       d="M453.4,648.2v5.4l-2.2,3.9h2.2v16.3h6v-16.3h5.7v-4.6h-5.7v-3c.6-.6,2-1.2,3.4-1.2s2.2,0,3.4.5v-4.8c-1.6-.5-2.8-.5-4.1-.5-3.7,0-7,1.8-8.7,4.3Z"
       id="path12"
       style="fill:#ffb380" />
    <path
       class="cls-1"
       d="M479.8,657.5v-4.6h-4.5v-6h-6v6.7l-2.7,3.9h2.7v9.1c0,4.8,1.8,7.5,7.5,7.5s1.2,0,2.8-.2v-4.8c-.6,0-1.1.1-1.6.1-1.8,0-2.7-.7-2.7-2.8v-8.9h4.5Z"
       id="path13"
       style="fill:#ffb380" />
    <path
       class="cls-1"
       d="M482.6,663.4c0,6.4,4.2,10.9,11.2,10.9s4.1-.4,6-1.4v-4.9c-2.2,1.1-3.5,1.4-5.5,1.4s-4.9-1.3-5.5-4.3h13.7c.4-7.3-3.2-12.6-9.7-12.6s-10.2,5.3-10.2,11ZM489,660.9c.7-2.5,2.5-3.6,4-3.6s3.3,1.1,3.6,3.6h-7.7Z"
       id="path14"
       style="fill:#ffb380" />
    <path
       class="cls-1"
       d="M517.1,652.9c-6.7,0-11,4.6-11,10.5s4.1,10.8,10.9,10.8,6.1-1.1,7.7-2.1v-27.8h-7.8l1.8,3.3v5.3h-1.6ZM518.7,669.2c-.6.2-1.1.2-1.8.2-2.7,0-4.8-2.2-4.8-5.9s1.9-5.5,5-5.5h1.6v11.3Z"
       id="path15"
       style="fill:#ffb380" />
    <path
       class="cls-1"
       d="M556.1,673.8h7.1v-16.2h-10.7v5.3h4.8v5.5h-1.2c-5.4,0-8.2-3.9-8.2-8.9s3.1-8.9,9.1-8.9.8,0,1.2,0l3.2,2.6v-7.3c-1.7-.5-3.3-.7-4.7-.7-8.6,0-15.2,6.5-15.2,14.5-.2,7.9,5.4,14,14.6,14Z"
       id="path16"
       style="fill:#ffb380" />
    <path
       class="cls-1"
       d="M567.6,667c0,2.9,1.8,5.5,3.9,7.4l8.4-2.6v2h5.7v-13.6c0-5-3.7-7.7-10.1-7.7s-5.1.6-6.6,1v6.7l3.4-2.7c.9-.2,1.8-.3,2.7-.3,3,0,4.5.8,4.7,3h-3.2c-6.6,0-8.9,2.7-8.9,6.8ZM573.2,666.9c0-1.3.8-2.4,3.2-2.4h3.3v2.5l-5.9,1.6c-.4-.4-.7-1.1-.7-1.7Z"
       id="path17"
       style="fill:#ffb380" />
    <path
       class="cls-1"
       d="M596.9,652.9h-7.4l1.8,3.3v17.6h6v-12.9l3.6-2.9c1.3.3,2.3,1.5,2.3,4.2v11.6h6v-12c0-.3,0-.5,0-.8l3.6-2.9c1.3.3,2.3,1.5,2.3,4.2v11.6h6v-12c0-5.7-3.6-9.1-9.4-9.1l-4.1,3.6c-1.6-2.3-4.3-3.6-7.9-3.6l-2.9,2.6v-2.3Z"
       id="path18"
       style="fill:#ffb380" />
    <path
       class="cls-1"
       d="M625.3,663.4c0,6.4,4.2,10.9,11.2,10.9s4.1-.4,6-1.4v-4.9c-2.2,1.1-3.5,1.4-5.5,1.4s-4.9-1.3-5.5-4.3h13.7c.4-7.3-3.2-12.6-9.7-12.6s-10.2,5.3-10.2,11ZM631.7,660.9c.7-2.5,2.5-3.6,4-3.6s3.3,1.1,3.6,3.6h-7.7Z"
       id="path19"
       style="fill:#ffb380" />
    <path
       class="cls-1"
       d="M665.1,654.8c-2.5-1.8-5-2.3-7.1-2.3-5.6,0-9,3.7-9.6,8.2l10.3,7.3c-.6,1-1.4,1.5-3,1.5s-3.2-.5-5.1-2.3l-2.9,3.7c2.3,2.3,4.8,3.4,8.2,3.4,5.6,0,8.7-3.9,9.3-8.3l-10.3-7.3c.6-1,1.7-1.6,3.2-1.6s1.6.2,2.4.5l2.3,3.3.6-1.4,1.8-4.6Z"
       id="path20"
       style="fill:#ffb380" />
  </g>
  <g
     id="g24"
     style="fill:#f9f9f9">
    <path
       class="cls-1"
       d="M637.6,304.8c-7.3-4.6-12.6-11.4-18.8-17.2-7.4-6.9-14.6-14.1-21.8-21.3-2.1-2.1-3.9-4.4-5.9-6.5-5.2-5.3-10.7-10.2-15.5-15.8-7-8-13.4-16.5-20.3-24.6-6.5-7.7-13.1-15.1-19.8-22.6-.6-.7-1.7-1-2.9-1.8-.2,2.5.2,4.8-.6,6.3-2,3.5-4.6,6.8-7.1,10-4.6,6-9.6,11.7-13.7,18-5.2,7.8-9.7,16.1-14.4,24.1-1.2,2.1-2.6,4.2-3.7,6.4-1.6,3.4-3.1,6.8-4.7,10.1.2,0,.4.1.5.2,1.4.8,2,2.4,1.5,3.4-.4.7-1.3,1.1-2.2.6-.4-.2-.8-.7-1.1-1.3-.6,1.3-1.2,2.6-1.9,3.8-3.8,7.3-8,14.4-11.8,21.7-1.4,2.5-3.1,5.1-2.3,7.5,2,1.9,3.6,3.1,4.6,4.6,4.1,6,8,12,11.9,18.1,2.6,4.1,5,8.3,7.5,12.5,4.4,7.3,8.8,14.6,13.2,21.9.7,1.1,1.7,2.1,2.7,2.8.8.6,2.4,1.1,3,.7.9-.7,1.7-2.2,1.5-3.2-.5-2.2-1.3-4.4-2.5-6.4-3.8-6.4-7.7-12.6-11.6-18.9-3.8-6.2-7.4-12.6-11.5-18.7-3.9-5.8-8.4-11.3-12.9-17.3,1.1-1.9,2.5-4.1,3.8-6.4,1.5-2.5,3.1-5,4.6-7.5-.1,0-.2,0-.3,0-.5-.3-.5-1.2,0-2.2.5-.8,1.3-1.1,2.1-.9,2.6-4.3,5.3-8.6,7.8-12.9,3.1-5.4,5.4-11.3,8.5-16.6,5.3-8.9,10.8-17.7,16.6-26.2,5.1-7.5,10.8-14.7,16.4-22.3,1.1,1.3,2.1,2.4,2.9,3.6,3,4,5.9,8.1,8.9,12.1l.4-.8c.3-.5.4-.7.6-.6,0,0,0,.4,0,1,.1.5,0,1-.3,1.5,2.8,3.7,5.6,7.5,8.5,11.1,6.7,8.3,13.7,16.2,21,24,6.6,7.1,13.5,13.8,20.6,20.5,8,7.5,16.3,14.8,24.5,22.1,2.4,2.2,5,4.1,7.9,6.4-2,1.6-3.8,3-5.6,4.4-3.3,2.7-6.6,5.4-9.9,8.1-4.2,3.5-8.3,6.9-12.5,10.4-.6.5-1.3,1.1-1.9,1.6.3.5.4,1.3.3,2.1-.2.8-.2,1.4-.4,1.7-.4.7-.8.8-1.2.5-.7-.4-1.2-1.2-1.4-2-1.7,1.5-3.4,3-5.1,4.5-3.1,2.8-6,5.8-9,8.7,2.3.3,4.5,1,6.3,2.1.6.3,1,.7,1.4,1.1.5-.5,1.1-.9,1.6-1.4-.3-.5-.5-1.1-.6-1.9,0-.4.2-.8.3-1.1.3-.5.6-.6,1.3-.1.5.3.9.8,1,1.4,2.4-2.1,4.8-4.2,7.1-6.4,3.8-3.6,7.4-7.4,11.2-11,6.5-6.1,13-12.1,19.7-18,.9-.8,2.2-1.1,3.4-1.4,2.6-.6,3.1-1.5,1.8-3.7-.6-1-1-2.2-1.9-2.8ZM611,286.1c-.3.5-1.2.5-2.2,0-1.2-.7-1.9-2.1-1.5-3.4.4-.7,1.3-1.1,2.2-.6.9.5,1.7,1.9,1.7,2.9,0,.4-.2.8-.3,1.1Z"
       id="path21"
       style="fill:#f9f9f9" />
    <path
       class="cls-1"
       d="M496.5,229.3c2.6-4.2,5.4-8.2,8.3-12.2,6.1-8.3,12.3-16.6,18.4-24.9,1.5-2,2.7-3.8,5.6-4.2,2.8-.3,3.3-2.6,1.4-4.7-3.2-3.5-6.3-7.1-9.7-10.4-8.1-7.8-14.1-17.3-20.6-26.4-9.5-13-18.8-26.2-28.5-39.1-2.9-3.9-6.9-7-10.6-10.3-1.4-1.2-3.2-2-5-.7-2.1,1.5-4.2,3.1-5.9,5-4.5,5.2-10,9.3-14.1,15-3.9,5.3-8.6,10-13.2,14.8l.6.4c.7,1,.8,1.8.7,2-.4.7-2.2.6-3.4-.1,0,0,0,0,0,0-.1.2-.3.3-.4.5-1.7,1.9-3.5,3.8-5.3,5.8.4.1.8.3,1.2.5.9.5,1.7,1.3,1.4,1.8-.3.5-1.2.5-3.3.3-.4-.3-.8-.2-1.2-.4-1.6,1.8-3.1,3.5-4.6,5.4-6.6,8.3-12.8,17-19.3,25.4-1.9,2.4-3.7,5.1-7.4,5,0,1,.3,1.8.1,2.3-1.3,2.9-.3,4.4,2.6,5.6,1.8.8,3.4,2.6,4.6,4.2,4.7,6.1,9.1,12.5,13.9,18.4,6.6,8.2,13.5,16.1,20.2,24.2,1.9,2.3,3.7,4.6,5.6,6.8,4.3,5.1,8.8,10.1,13,15.3,4.6,5.6,9.3,11.1,13.3,17.1,1.9,2.8,5.9,4.3,5.3,9.8,2.8-1.9,4.8-2.6,5.9-4,2.8-3.4,5.5-6.9,7.8-10.7,7.6-12.4,15-25.1,22.5-37.5ZM412,145.6c.4-.7,2.2-.6,3.4.1.9.5,1.5,1.2.8,2.4v.2c-.4.5-1.2.3-1.9-.1-.7-.4-1.5-1.2-2-1.5-.3-.5-.4-.9-.3-1.1ZM403.8,157.4c.4-.7.9-1,1.6-.6.2.1.5.3.6.6.5,1.2.9,2.1.7,2.6-.3.5-1.1.3-2-.3-.9-.5-1.2-1.7-.8-2.4ZM463.8,270.1c-5-10.3-13.7-17.1-20.2-25.8-1.7-2.2-3.4-4.4-5.2-6.5-3-3.5-6.1-6.8-9-10.4-7.5-9.3-15.6-18-23.5-27-.2-.2-.3-.3-.5-.5-.9.4-1.6.5-2,.3-.4-.3-.3-1,.3-2.1-3.1-3.2-6.4-6.3-9.6-9.4-1.6-1.6-3.1-3.3-4.7-5.1,4.6-5.6,9-11.2,13.5-16.7-.1-.5-.2-1.2-.2-2,0-.4.2-.8.3-1.1.3-.5.6-.6,1.3-.1.3.2.5.4.7.6,2.4-2.9,4.8-5.8,7.2-8.6,7.7-9.1,15.9-17.9,23.6-27.1,7.6-9.2,16.5-17.2,23.6-27.4,3.6,3.2,6.6,7.5,9.5,11.8,4.4,6.7,8.4,13.7,12.8,20.5,0,0,0,0,0,0,.6-.3,1.3-.6,1.9-.5.4,0,.6,0,.8.2s0,.4,0,.6c-.3.5-.5.9-1.1,1.3-.2.1-.3.2-.5.3,7.9,12,16.3,23.5,25.4,34.7,3.8,4.7,7.5,9.4,11.4,14.3-16.9,19.3-30.2,41-43.1,63.3.4,0,.8.1,1.1.3.9.5,1.2,1.7.7,2.6-.4.7-1.4,1.4-3.3,1.8-.5.1-.9.1-1.2,0-3.4,5.9-6.8,11.9-10.2,17.8Z"
       id="path22"
       style="fill:#f9f9f9" />
    <path
       class="cls-1"
       d="M586.5,351.2l-2.7-1.6c-.1,0-.3-.2-.4-.2-.1.1-.3.3-.4.4-3,2.8-6.1,5.5-8.9,8.4-4.3,4.4-8.5,9-12.7,13.6-4.5,4.9-9,9.8-13.9,15.1,2.7,2.2,5.5,1.2,7.7-.5,2.9-2.1,5.5-4.7,8-7.3,8.8-9.1,17.8-18,27.4-26.3-1.1-.4-2.5-1-4-1.7Z"
       id="path23"
       style="fill:#f9f9f9" />
    <path
       class="cls-1"
       d="M441.4,276.8c-5.8-6.7-11.4-13.6-17.5-20.1-5.7-6.1-12-11.7-17.6-17.9-10-11.1-20.2-22.1-31.2-32.2-1.9-1.7-4-3.3-4.1-6.4,0-1.1-1.6-2.2-2.7-3.7-1.9,1.4-3.6,2.4-5,3.8-1.4,1.4-2.7,2.9-4.1,4.4,1.1,1,1.9,2.1,1.4,3v.2c-1.4.7-2.7.3-3.9-.4-.2.2-.4.5-.6.7-5.2,5.6-10.5,11.2-15.8,16.8-3.3,3.6-6.6,7.3-10,10.8-4.2,4.5-8.6,8.9-12.8,13.5-4.1,4.5-7.8,9.3-12,13.7-3.8,4-6.9,8.9-11.9,11.7-.7.4-1.4,1.5-1.6,2.3-.9,3.5-3.5,5.4-6.1,7.4-.7.6-1.9,1.2-2,1.8-.1,2.5-2.1,3.6-3.4,5.2-2.8,3.6-5.6,7.3-8.1,11.1-.8,1.2-1,2.9-1.4,4.1,2.6,1.2,4.9,1.9,6.6,3.2,8.9,7.2,17.8,14.5,26.5,22,7,6,13.5,12.4,20.5,18.3,3.7,3.2,7.9,5.9,11.9,8.6,1.5,1,3.3.9,4.3-.9.9-1.7-.4-2.6-1.7-3.6-7.3-5.9-14.5-11.8-21.6-17.9-6.4-5.4-12.4-11.3-18.8-16.6-6.1-5-12.6-9.5-18.9-14.2-.7-.6-1.3-1.3-1.9-1.9,3.7-4,7.1-7.6,10.5-11.3,26.4,20.1,28.4,21.4,34,21.7,0-.5.1-1.2,0-1.4-10-7.9-20-15.7-30.4-23.9,1.8-2.2,3.8-4.5,5.9-7,3.5,2.7,6.6,5.1,9.7,7.6,4.2,3.4,8.2,7.1,12.5,10.4,6.4,4.9,13,9.5,19.5,14.1,1.6,1.1,3.3,2.2,5.1,2.9.8.3,2.3-.2,3-.8.4-.4.2-2-.3-2.7-1.1-1.6-2.4-3.2-3.8-4.5-12.1-10.5-25.2-19.5-38.5-28.2-1-.7-2-1.4-3.5-2.5,2.7-2.9,5.4-5.8,8-8.7,0,0,0-.1,0-.2.2-.8.5-1.3.9-2,.7-1.2,1.6-1.4,2.2-1.2,8.5-9.1,16.9-18.2,25.3-27.2-.1,0-.3,0-.4,0h-.2c-1.2-.8-1.3-2.2-.6-3.3.9-1,1.7-1.2,2.4-.8.5.3.9,1.2,1,2,9.5-10.3,19.1-20.5,28.7-30.9,5.3,6.2,10.7,11.7,15.1,17.9,6.6,9.2,15.1,16.4,22.3,24.9,7.6,9,15.7,17.6,23.4,26.6,5.2,6,10.2,12.3,15.4,18.5-2.5,3.6-5,7.1-7.3,10.7-4.2,6.5-8.2,13.1-12.3,19.7-2.6,4.1-5.2,8.3-7.7,12.4-1.5,2.4-1.3,5,.3,6.2,1.9,1.5,4.8,1.1,6.7-.8.6-.6.9-1.3,1.4-2,3.6-6,7.1-12.1,10.7-18.1,2.3-3.8,4.8-7.5,7-11.4-.6-.4-.8-1.1-.5-1.6.1-.2.3-.5.6-.6.5-.3,1-.5,1.4-.6.2-.4.4-.7.6-1.1,2.4-4.4,4.1-9.2,6-13.9.7-1.8.4-3.4-1.1-4.9-3.3-3.6-6.3-7.5-9.5-11.2Z"
       id="path24"
       style="fill:#f9f9f9" />
  </g>
  <path
     class="cls-1"
     d="M688.4,698.3c-10.2-1.8-20.4-3.4-30.8-3.9-7.2-.3-14.3-1.4-21.5-1.8-8.3-.5-16.7-.7-25-.9-3.1,0-6.1-.1-9.2-.2-.3,1.2-1.1,1.9-1.9,2.1-1,.3-2-.3-2.3-1.4,0-.2,0-.5,0-.8-10.5-.2-21-.4-31.4-.4-21.3,0-42.7.3-64,.5-1,0-1.9.3-2.9.4-1.8.3-3.6.7-5.3.7-16.5-.2-32.9.2-49.4,1.3-4.4.3-8.8.2-13.2.5-8.8.5-17.7,1.1-26.5,1.6-8.4.5-16.8.7-25.1,1.3-9.5.6-19,1.6-28.5,2.3-3.9.3-7.9.1-11.8.4-10.4.9-20.8,2.1-31.2,2.9-8,.6-16,.9-24,1.2-1.2,0-2.5,0-4.2,0,.8-2.7,1.4-4.8,2-6.8-3.4-1.9-3.8-1.9-5.2.6-.6,1-1,2-1.5,3.1-1.5,3.7-4.2,4.8-8.1,4.8-5.6,0-11.2.4-16.7.7-.9,0-1.7.5-2.6.7,0,.4,0,.7,0,1.1,7,3.1,14.8,1.1,22.5,2.5-2.4,5.3-4.8,10.1-6.9,15-1.4,3.3-2.6,6.7-3.8,10.1-.6,1.5,0,2.6,1.4,3.2,3.4,1.3,6.7,2.9,10.1,3.7,1.7.4,3.3.9,5,1.3,0,0,0,0,0,0,.2-.9.4-1.1.6-1.3l.2-.2c.3.3.5.9.8,2,6.8,1.8,13.7,3.6,20.8,4.1,6.2.5,12.3,2,18.4,3,5,.9,10,1.8,15,2.6,3.3.5,6.6,1,9.9,1.6-.4-.4-.6-1.1-.7-1.7-.1-.5-.3-1,0-1.4,0-.3.2-.3.2-.3.5-.1,1,.9,1.4,2.4l.3,1s0,0,0,0c10.3,1.6,20.5,3.2,30.8,4.8,4.2.6,8.4,1,12.6,1.7,1.3.2,3,.8,3.6,1.8,2.8,4.1,5.6,8.2,8.3,12.3,0,0,.2,0,.3-.1.8-.2,2.6.2,3.3.9.3.2.4.5.5.7.2.8-.5,1.5-1.5,1.8,0,0-.2,0-.3,0,3.7,5.5,7.4,11.1,11,16.6,4.1,6.2,7.9,12.5,12.1,18.5,7.2,10.4,14.5,20.7,21.9,30.9,2.4,3.3,5.1,6.1,6.6,10.1,1.4,4,6.5,4.8,10,2.1,4.6-3.5,8-7.9,11.5-12.5,7.4-9.6,15-19,22.9-28.2,8-9.4,16.3-18.5,24.5-27.6,4.5-5,9.4-9.6,14-14.5,1.6-1.8,3.4-3.4,5.2-5,0-.1,0-.3.1-.5.5-1.5,1.1-2.5,1.6-2.6.3,0,.6.2.8.6,2.6-2.6,4.9-5.3,6.5-8.8.7-1.7,2.4-2.5,4.5-2.4,6.6.4,13.2,1,19.7.7,6.7-.3,13.3,1.1,20.1.5,8.9-.9,18-.2,27-.1,4.4,0,8.8.3,13.3,0,5.2-.2,10.4-.9,15.6-1.2,7.1-.5,14.1-.8,21.3-1.2.4-2.9.4-2.8-.8-5.6-1.7-3.9-3.3-7.9-5-11.8-2.7-6.2-5.4-12.3-8.3-18.4-.2-.4-.4-.8-.6-1.2-1,.2-1.9.1-2-.3,0-.4.2-.9,1.1-1.6-.2-.4-.4-.9-.6-1.3-.5.4-1.1.7-1.7.8-1,.3-1.9.2-2.2-1.1v-.3c-.2-.5.5-1,1.3-1.2.5-.1,1.1-.2,1.6-.2-1.6-3.2-3.2-6.3-4.7-9.5-.5-1.1-.4-2.4-.6-4.3,16.8.9,33.1,1.8,49.3,2.6-2.7-3-6.1-3.4-9.4-4ZM400.3,774.7c-.8.2-1.6-.3-2-1.1-.2-.8,0-1.3.3-1.4s1.2.2,2,.9c.3.2.4.6.4.8.1.4,0,.7-.7.8ZM649.7,723.8c.2,0,.3-.1.5-.1,1-.3,2,0,2.2.9v.5c0,.7-.5,1.1-1.3,1.4,3.4,6.8,7.1,13.5,10.7,20.4-18.1,1.9-35.7,2.7-53.3,3-2.1-3-2.9-7.4-8.5-6.1.3,2.1.6,4,1,6.4-3.4,0-6.6.4-9.8.1-1,0-2.3-1.3-2.7-2.3-.6-1.3-.7-2.9-.6-4.3.2-3.1-1.4-3.7-4.1-3.2-.7,3-1.4,6-2.2,9.5-3.6.2-7.3.4-11.1.6-7.2.3-14.4.6-21.6,1-1.3,0-2.8.9-3.8,1.8-4,3.8-7.8,7.9-11.9,11.8-3.8,3.6-7.8,6.9-11.6,10.5-.3.2-.5.5-.8.7.3.2.5.7.7,1.5.1.5-.3,2.3-1.2,3.1-.2.3-.5.4-.7.5-.3,0-.3-.2-.4-.5-.1-.5-.3-1-.1-1.6.1-.7.3-1.3.4-1.7-3.6,3.4-7.2,6.8-10.6,10.4-5.1,5.3-9.9,10.9-15.2,16.8-1.1-4.5-2.1-8.5-3-12.6-.3-1.3-.5-2.6-.8-4-.8,0-1.6-.6-1.8-1.4-.3-1.3,0-2.2.3-2.3.2,0,.6,0,.9.2-.7-3.7-1.3-7.4-2.1-11.1-.2-1.2-1.3-2.2-2-3.4-2.2.6-2.8,2-2.8,3.8,0,2.3-.3,4.6,0,6.9.4,3.6,1.1,7.1,1.8,10.6,1.3,6.6,2.6,13.1,4.1,20.3-10,12.3-18.6,26.7-30.1,39.3-1.5-5.4-4.4-9.3-7.3-13.1-4.4-5.9-8.8-11.9-13.2-17.9-5.5-7.6-10.9-15.2-16.3-22.8-3.5-4.9-6.7-10-10.3-14.9-4.9-6.6-10-13-15-19.5-1.5-2-2.8-4.1-4.2-6.1-1.2-1.7-2.4-2.7-4.9-2.2-2.7.5-5.6.2-8.3-.2-9.1-1.5-18.2-3.1-27.4-4.6,0,0,0,0,0,.1.1.5,0,.9-.3.9-.3,0-.9,0-1.8-.7-.4-.2-.8-.6-1.1-.9-2.8-.4-5.5-.9-8.3-1.3-.6,0-1.3-.2-1.9-.3.2.2.3.5.4.7.1.5,0,1.1-.5,1.5-.3,0-.2.3-.5.4-.8.2-1.8-.4-2.5-1.3-.5-.7-.8-1.2-.9-1.4,0-.1,0-.3,0-.4-5.8-.7-11.6-1.2-17.5-1.9-3.1-.4-6.1-.9-9.1-1.4-10.5-1.7-21.1-3.4-31.6-5.2-3.1-.5-6.2-1.6-9.4-2.4,3.4-8.1,6.6-15.7,9.7-23.2.8-1.8,2-2.7,4.1-2.9,3.4-.2,6.8-.4,10.2-.6-.2-.2-.4-.3-.4-.5-.1-.5.6-1,1.6-1.2s2,.3,2.2,1.1c0,.1,0,.3,0,.4,6-.4,12-.7,18.1-1.1,0,0,0-.1,0-.2v-.3c-.3-.8.4-1.5,1.2-1.7.8-.2,1.4,0,1.5.5,0,.3.1.5,0,.9,0,.2-.1.4-.2.7,1.2,0,2.5-.2,3.7-.2,14.7-1,29.5-2.1,44.2-3,9.9-.6,19.7-1.1,29.6-1.7.3-.5.7-.9,1.1-1.4l1.6-1.5c.8-.7,1.2-1.1,1.4-.9.2.2.2.6,0,1.5-.2.7-.4,1.4-.8,2.1,1.7,0,3.4-.2,5.1-.3,2.5-.1,4.9-.5,7.4-.7,4.2-.4,8.5-.9,12.7-1,11.8-.5,23.5-.8,35.3-1.2,11-.4,22-.7,33-1.2,2.8-.1,5.5-1.2,8.2-.9,10.3.9,20.6,0,30.9,0,17.1,0,34.1,0,51.2,0-.3-.3-.4-.6-.5-.9-.2-.8.2-1.4,1.2-2h.3c1.3-.4,2.4.5,2.7,1.8,0,.4,0,.8,0,1.1,9.4,0,18.8,0,28.2.2,9.7.3,19.3.9,29.3,1.5,2.5,8.4,6,16.5,10,24.4Z"
     id="path25"
     style="fill:#f9f9f9" />
</svg>
