<?xml version="1.0" encoding="UTF-8" standalone="no"?>
<svg
   width="16"
   height="16"
   version="1.1"
   id="svg12"
   xmlns:xlink="http://www.w3.org/1999/xlink"
   xmlns="http://www.w3.org/2000/svg"
   xmlns:svg="http://www.w3.org/2000/svg">
  <defs
     id="defs12">
    <linearGradient
       id="linearGradient366"
       x2="0"
       y2="16"
       gradientUnits="userSpaceOnUse"
       x1="0"
       y1="0"
       spreadMethod="pad">
      <stop
         stop-color="#ff4596"
         id="stop365"
         offset="0"
         style="stop-color:#40d6f2;stop-opacity:1;" />
      <stop
         stop-color="#ff4596"
         id="stop367"
         offset="0.31529415"
         style="stop-color:#4eff89;stop-opacity:1;" />
      <stop
         stop-color="#ff4596"
         id="stop366"
         offset="0.71764708"
         style="stop-color:#f3f902;stop-opacity:1;" />
      <stop
         stop-color="#ff4596"
         id="stop368"
         offset="1"
         style="stop-color:#ffa843;stop-opacity:1;" />
    </linearGradient>
    <linearGradient
       id="a"
       x2="0"
       y2="16"
       gradientUnits="userSpaceOnUse"
       xlink:href="#a-1">
      <stop
         offset=".188"
         stop-color="#ff4545"
         id="stop328" />
      <stop
         stop-color="#ffe345"
         id="stop329" />
      <stop
         offset=".313"
         stop-color="#ffe345"
         id="stop330" />
      <stop
         stop-color="#80ff45"
         id="stop331" />
      <stop
         offset=".438"
         stop-color="#80ff45"
         id="stop332" />
      <stop
         stop-color="#45ffa2"
         id="stop333" />
      <stop
         offset=".563"
         stop-color="#45ffa2"
         id="stop334" />
      <stop
         stop-color="#45d7ff"
         id="stop335" />
      <stop
         offset=".688"
         stop-color="#45d7ff"
         id="stop336" />
      <stop
         stop-color="#8045ff"
         id="stop337" />
      <stop
         offset=".813"
         stop-color="#8045ff"
         id="stop338" />
      <stop
         stop-color="#ff4596"
         id="stop339" />
    </linearGradient>
    <linearGradient
       xlink:href="#linearGradient366"
       id="linearGradient339"
       gradientUnits="userSpaceOnUse"
       x2="0"
       y2="16" />
    <linearGradient
       xlink:href="#linearGradient366"
       id="linearGradient340"
       gradientUnits="userSpaceOnUse"
       x2="0"
       y2="16" />
  </defs>
  <linearGradient
     id="a-1"
     x2="0"
     y2="16"
     gradientUnits="userSpaceOnUse">
    <stop
       offset=".188"
       stop-color="#ff4545"
       id="stop1" />
    <stop
       stop-color="#ffe345"
       id="stop2" />
    <stop
       offset=".313"
       stop-color="#ffe345"
       id="stop3" />
    <stop
       stop-color="#80ff45"
       id="stop4" />
    <stop
       offset=".438"
       stop-color="#80ff45"
       id="stop5" />
    <stop
       stop-color="#45ffa2"
       id="stop6" />
    <stop
       offset=".563"
       stop-color="#45ffa2"
       id="stop7" />
    <stop
       stop-color="#45d7ff"
       id="stop8" />
    <stop
       offset=".688"
       stop-color="#45d7ff"
       id="stop9" />
    <stop
       stop-color="#8045ff"
       id="stop10" />
    <stop
       offset=".813"
       stop-color="#8045ff"
       id="stop11" />
    <stop
       stop-color="#ff4596"
       id="stop12" />
  </linearGradient>
  <path
     d="m 11.998047,7 c 0.4299,0.7456291 0.947828,1.3872378 1.431641,2 0.57,0.69 1.064843,1.342 1.339843,2 C 14.906531,11.326 15,11.656 15,12 15,12.344 14.92841,12.686 14.816406,13 14.402406,14.163 13.304,15 12,15 10.696,15 9.5965938,14.163 9.1835938,13 9.0715937,12.686 9,12.344 9,12 9,11.656 9.0924688,11.326 9.2304688,11 9.5044688,10.342 9.9993125,9.69 10.570313,9 11.053125,8.3872378 11.571098,7.7456291 12,7 Z"
     style="fill:url(#a);stroke-width:1.1"
     id="path64" />
  <path
     d="M 11,5 H 5 v 6 h 2.1171875 c 0.18,-0.784 0.5455,-1.435 0.9375,-2 0.14,-0.203 0.2848281,-0.4019844 0.4238281,-0.5839844 C 8.8645156,7.9110156 9.2420313,7.448 9.5820313,7 9.8390313,6.662 10.076578,6.33 10.267578,6 10.62491,5.381083 11,5 11,5 Z"
     style="display:none;fill:url(#linearGradient340);stroke-width:1.1"
     id="path63" />
  <path
     d="M 2,1 A 1,1 0 0 0 1,2 v 12 a 1,1 0 0 0 1,1 H 8.0371094 A 5.044,5.044 0 0 1 7.1171875,13 H 3.5 3 V 3 h 1 9 V 3.5 5.2675781 A 2,2 0 0 1 13.732422,6 c 0.188,0.327 0.428547,0.66 0.685547,1 C 14.603969,7.246 14.798,7.494 15,7.75 V 2 A 1,1 0 0 0 14,1 Z"
     style="fill:url(#linearGradient339);stroke-width:1.1"
     id="path62" />
</svg>
